<?xml version="1.0" encoding="UTF-8"?>
<svg width="95.781mm" height="95.235mm" version="1.1" viewBox="0 0 95.781 95.235" xmlns="http://www.w3.org/2000/svg" xmlns:cc="http://creativecommons.org/ns#" xmlns:dc="http://purl.org/dc/elements/1.1/" xmlns:rdf="http://www.w3.org/1999/02/22-rdf-syntax-ns#" preserveAspectRatio="xMidYMin meet">
 <metadata>
  <rdf:RDF>
   <cc:Work rdf:about="">
    <dc:format>image/svg+xml</dc:format>
    <dc:type rdf:resource="http://purl.org/dc/dcmitype/StillImage"/>
    <dc:title/>
   </cc:Work>
  </rdf:RDF>
 </metadata>
 <g transform="translate(.24752 -.5974)" fill-opacity="0" stroke-width=".26458">
  <path d="m167.39 109.88-3.6929 0.98244-2.6973-2.707 0.99565-3.6894 3.6929-0.98245 2.6973 2.707z"/>
  <path d="m168.02 110.47-4.8915 1.7446-3.9566-3.3639 0.9349-5.1084 4.8915-1.7446 3.9566 3.3639z"/>
  <path d="m193.37 108.45-6.6279 0.72156-3.9388-5.3791 2.689-6.1007 6.6279-0.72156 3.9388 5.3791z"/>
  <path d="m172.6 164.66-16.149 11.64-18.155-8.1651-2.0063-19.805 16.149-11.64 18.155 8.1651z"/>
  <rect x="161" y="108.16" width="4.2209" height="2.8552"/>
 </g>
 <g transform="translate(-91.664 -30.535)">
  <path d="m155.1 106.09c-27.322 3.7349-27.446-5.3475-29.064-5.5739-5.0428-0.70551-6.573-10.947-5.7238-15.584 0.54462 3.0041 2.1434 3.5311 3.3242 5.3851-0.22622-3.5906-2.2059-9.9697-0.86023-16.586 0.77788 1.9339 3.5472 5.3945 7.3967 9.3681-1.2656-6.4864-8.1916-11.383-2.5688-23.144 2.955 12.268 5.9393 5.9067 8.8426 8.4745-10.246-14.52-5.7267-19.857-5.7852-20.884 1.6625 10.017 3.5325 8.2233 7.7199 9.7096-8.3244-17.897-2.8504-21.603-0.14964-26.72-2e-3 9.7392 1.4376 15.111 4.5432 20.917 2.4453 6.239 3.437-0.25753 6.047 19.411 0.94285-4.098 3.1683-4.6512 1.3598-14.903 4.0163 6.0567 11.127 8.0558 5.5384 27.952 1.9096-0.27847 2.9147-4.8956 3.6198-7.3393 4.2054 11.163 0.19344 20.389-4.2397 29.516z" fill="#f15a29"/>
  <path d="m149.05 78.371c2.5407-4.072 1.8635-8.2631 1.7347-12.434 5.4469 6.8095 6.5701 15.191 2.0286 22.901 0.92756-0.9821 3.3542-3.058 3.6099-5.1522 1.9142 14.179-3.0883 17.724-6.4282 23.825l-21.137-1.8538c-4.1382-8.0531-7.1625-16.276-4.8355-25.313 0.7447 3.7448 1.1964 6.7644 4.1394 9.1848-1.0397-5.7873-1.384-11.398 0.23092-18.046 0.99385 6.5337 1.8762 12.389 5.8596 14.519-2.696-9.3085-4.1984-18.266-0.9148-25.818 0.0581 7.7712 1.8961 10.087 2.877 13.577 3.3592-2.7913 6.541-5.7219 4.658-12.634-3.1844-8.0535 1.5317-15.37 6.1086-22.7-2.1064 8.3954-3.5609 16.306-1.2529 23.108 1.9526 3.8308 3.7837 7.8177 3.3215 16.837z" fill="#f5961e"/>
  <path d="m145.67 88.402c3.3183-2.4615 3.7455-6.075 5.053-8.489 1.7308 3.9114 2.2017 9.3717 1.225 14.856 1.59-2.0484 2.1884-4.5486 2.6005-6.7634 1.781 15.05-2.9227 24.462-20.079 19.35-2.2048-5.3775-8.4051-9.9763-6.0204-25.137 1.9685 3.9166 0.0638 4.5433 6.413 11.096-6.0006-30.515 4.0937-28.148-1.7575-42.261 3.7025 2.7208 5.753 8.1 6.0858 18.877 2.4944-3.3294 2.3246-4.9797 2.2477-6.946 3.258 6.2554 0.38216 9.991 0.24279 14.851 0.19194-3.3967 1.5425-5.2789 2.6336-6.858-1.4062 6.5967-1.0316 7.0702-1.0316 7.0702 1.7598-2.5178 2.0414-4.4471 2.0207-6.8857 4.7174 8.4582 1.2816 9.694 0.36609 17.241z" fill="#fdbf12"/>
  <path d="m144.11 90.223c3.0653-3.0139 2.5417-9.4111 2.3409-12.99 11.916 18.204 1.6397 24.678 0.0181 29.945l-10.812-1.3557c-4.7826-3.9251-7.2688-10.404-5.792-14.448 1.27 2.435 2.3751 4.8605 7.3727 7.511-2.006-12.018-6.4269-26.414 2.4154-38.716-0.6394 6.9829-2.3948 13.023-0.59856 24.15 1.4895-6.762 0.5764-8.8994 5.2596-13.343-3.3814 16.587-1.2918 17.395-0.20416 19.246z" fill="#fae83c"/>
  <path d="m133.28 91.258c1.1498 3.6698 0.47609 5.0304 3.9646 7.6278-1.8842-7.743-5.3407-14.685 2.1001-23.668-1.426 5.4849-1.618 10.774 0.0894 15.761 0.29275-7.4339 2.6057-9.2591 4.9404-10.381-4.6478 8.4609-0.95888 12.763 0.0532 13.986 1.9644-3.569 2.5614-8.0358 1.612-13.534 3.8591 3.8258 6.3464 20.857-1.1181 24.291-5.7182-0.87436-6.4198-0.98824-9.1747-1.2671-3.5539-1.8808-3.637-10.872-2.467-12.816z" fill="#fdf7c5"/>
  <g transform="translate(-25.524,-60.62)" stroke-width=".26458">
   <g transform="translate(25.538,60.489)">
    <g transform="translate(-21.34,-8.5164)">
     <g transform="translate(11.438,13.347)">
      <g fill-rule="evenodd">
       <path d="m171.56 109.64 4.2218 4.056-5.3901 1.2817-0.58812-2.2192z" fill="#b4afae"/>
       <path d="m182.04 109.65 2.5417 1.4101-0.78171 5.6755-3.8748-2.3528z" fill="#6a757b"/>
       <path d="m179.93 114.38-1.4107-0.58783-2.7334-0.096-4.2218-4.056 3.0036-1.9594 7.477 1.9665z" fill="#7f888f"/>
       <path d="m178.52 113.8 1.4107 0.58783 3.8748 2.3528-5.2538 1.8827z" fill="#535e62"/>
      </g>
      <path d="m178.55 118.62-6.5504-2.0559-1.6046-1.5818 5.3901-1.2816 2.7334 0.096z" fill="#434d50"/>
     </g>
     <path d="m193.48 123-7.477-1.9665-3.0036 1.9594-0.46286 0.86899-5.3687-0.41974 5.3427-9.2801 6.64-1.843 9.3737 7.37-4.2123 3.8199z" fill="#535e62"/>
     <path d="m177.92 106.86 3.7174 1.396 0.87584 5.9078-11.534-4.4913z" fill="#93928e"/>
     <path d="m189.15 112.32 9.8681-3.8578 1.8992 3.6787-2.3936 7.5491z" fill="#686868"/>
     <path d="m177.17 123.44-2.3128-3.6262-3.9671-5.7187-0.86302-0.2566 0.95174-4.1699 11.534 4.4913z" fill="#434e50"/>
     <path d="m199.02 108.46-9.8681 3.8578-6.64 1.843-0.87584-5.9078 10.822-5.5379z" fill="#6b757e"/>
    </g>
    <g transform="translate(-1.8276,9.6993)">
     <g transform="translate(1.8973,-9.5921)">
      <path d="m95.832 116.53-3.3779-2.4969 3.8049-1.2273z" fill="#c8c6ba"/>
      <path d="m95.832 116.53 0.42705-3.7242 4.4593 1.2531z" fill="#b1b0ab"/>
      <path d="m103.3 116.37-7.4634 0.16763 4.8863-2.4711z" fill="#94928b"/>
      <path d="m92.454 114.04 3.3779 2.4969 0.16598 3.8854-4.4171-3.8311z" fill="#7f858b"/>
      <path d="m95.832 116.53 4.014-0.10779-1.052 3.2915-2.796 0.70173z" fill="#525e65"/>
      <path d="m99.846 116.42 3.4494-0.0598-0.65761 2.2383-3.8439 1.113z" fill="#434d50"/>
     </g>
     <path d="m116.33 99.275 1.7941-12.372 10.636 3.136z" fill="#b2b1ac"/>
     <path d="m110.84 106.76-4.8457-6.4299 1.9523-8.1437 5.2793 4.3039z" fill="#7f888f"/>
     <path d="m120.35 108.05-9.5125-1.295 2.3859-10.27 3.1007 2.7871 5.8429-0.5043z" fill="#6b767c"/>
     <path d="m127.3 98.543-5.1258 0.22771-5.8429 0.5043 12.43-9.2363 5.6927 5.5915-1.862 2.2616z" fill="#93928e"/>
     <path d="m113.23 96.488-5.2793-4.3039 10.174-5.2813-1.7941 12.372z" fill="#c7c4bb"/>
     <path d="m129.25 106.17-2.8963-0.10394 0.94015-7.52 5.2924-0.65121 0.14985 8.2192-2.1169 1.1028z" fill="#434e50"/>
     <path d="m122.62 108.06-0.25856 0.75747-2.0075-0.76388 1.8171-9.2819 5.1258-0.22771-0.94015 7.52-1.4078 0.085z" fill="#535e62"/>
    </g>
    <path d="m137.03 123.2-6.123-7.3899-0.14985-8.2192 1.862-2.2616 1.3674 8.8279 3.0924 4.0283z" fill="#6b747b"/>
    <path d="m150.35 116.84-4.7505-9.0472-5.6542-3.6261 8.7445 1.1592 0.86302 0.2566 3.9671 5.7187z" fill="#535e62"/>
    <path d="m152.45 122.22-1.739 1.8276-1.6475 0.57629-9.7994-4.0028-2.1778-2.4365 0.2881-4.3584 1.841 0.20084 0.82167-2.5351 9.5609 7.0968 0.75186-1.7526z" fill="#93928e"/>
    <path d="m156.08 117.98-3.6302 4.2393-2.1002-5.3838 3.1699-5.5387 2.3128 3.6262z" fill="#434e50"/>
    <path d="m149.06 124.62-2.951 1.2813-9.0751-2.7062 0.0488-5.0144 2.1778 2.4365z" fill="#515d61"/>
    <path d="m140.03 111.49-0.82167 2.5351-1.841-0.20084-0.2881 4.3584-3.0924-4.0283-1.3674-8.8279 1.5246-1.8802 5.794 0.71475 5.6542 3.6261 4.7505 9.0472-0.75186 1.7526z" fill="#b2b0ab"/>
    <g transform="translate(14.426,-4.0147)">
     <path d="m116.45 123.39-3.6261-1.9796-1.1832-0.21788 1.3604-1.3071 1.3692 1.0468 1.7617 1.4019z" fill="#92928e"/>
     <path d="m111.64 121.19-2.2463 0.0515-3.2848 1.291 0.25856-0.75747 2.3288-1.911 1.4078-0.085 2.8963 0.10394z" fill="#b3b1ab"/>
     <path d="m116.28 125.27-3.4768 1.0293-2.8168-0.0602 0.0835-2.9082 1.5646-2.1439 1.1832 0.21788 3.6261 1.9796z" fill="#6b767c"/>
     <path d="m115.9 127.32-1.7095 1.1455-3.9448-0.37066 2.5588-1.7916 3.4768-1.0293z" fill="#414f4f"/>
     <path d="m110.25 128.09-2.6392-0.7149-1.641-3.5009 4.0222 2.3641 2.8168 0.0602z" fill="#535e62"/>
     <path d="m110.07 123.33-0.0835 2.9082-4.0222-2.3641 0.13919-1.3455 3.2848-1.291 2.2463-0.0515z" fill="#7e878e"/>
    </g>
    <g transform="translate(-4.8544,7.6218)">
     <path d="m191.4 109.95-3.2947 1.6212 0.68449-2.2254 3.4963-1.9194z" fill="#404e4d"/>
     <path d="m188.1 111.57-4.6699 0.045-1.35-2.1878 4.5152 0.44376 2.1892-0.52638z" fill="#555f65"/>
     <path d="m186.6 109.87-4.5152-0.44376-0.0281-0.99944 2.2838-1.6122 1.7595 0.54824z" fill="#7e878e"/>
     <path d="m188.79 109.35-2.1892 0.52638-0.49997-2.5072 1.1782-1.8696 4.8556 0.50014 0.15168 1.4309z" fill="#6a757b"/>
     <path d="m187.28 105.49-0.1572-0.86274 1.2295-0.21742 3.7833 1.5803z" fill="#91918d"/>
     <path d="m182.06 108.43 1.1241-2.8051 3.9401-0.99119-2.7805 2.1841z" fill="#b2b0a7"/>
     <path d="m186.1 107.36-1.7595-0.54824 2.7805-2.1841 0.1572 0.86274z" fill="#889297"/>
    </g>
   </g>
   <g transform="translate(25.538,60.489)">
    <g transform="translate(-21.34,-8.5164)">
     <g transform="translate(11.438,13.347)">
      <g fill-rule="evenodd">
       <path d="m171.56 109.64 4.2218 4.056-5.3901 1.2817-0.58812-2.2192z" fill="#b4afae"/>
       <path d="m182.04 109.65 2.5417 1.4101-0.78171 5.6755-3.8748-2.3528z" fill="#6a757b"/>
       <path d="m179.93 114.38-1.4107-0.58783-2.7334-0.096-4.2218-4.056 3.0036-1.9594 7.477 1.9665z" fill="#7f888f"/>
       <path d="m178.52 113.8 1.4107 0.58783 3.8748 2.3528-5.2538 1.8827z" fill="#535e62"/>
      </g>
      <path d="m178.55 118.62-6.5504-2.0559-1.6046-1.5818 5.3901-1.2816 2.7334 0.096z" fill="#434d50"/>
     </g>
     <path d="m193.48 123-7.477-1.9665-3.0036 1.9594-0.46286 0.86899-5.3687-0.41974 5.3427-9.2801 6.64-1.843 9.3737 7.37-4.2123 3.8199z" fill="#535e62"/>
     <path d="m177.92 106.86 3.7174 1.396 0.87584 5.9078-11.534-4.4913z" fill="#93928e"/>
     <path d="m189.15 112.32 9.8681-3.8578 1.8992 3.6787-2.3936 7.5491z" fill="#686868"/>
     <path d="m177.17 123.44-2.3128-3.6262-3.9671-5.7187-0.86302-0.2566 0.95174-4.1699 11.534 4.4913z" fill="#434e50"/>
     <path d="m199.02 108.46-9.8681 3.8578-6.64 1.843-0.87584-5.9078 10.822-5.5379z" fill="#6b757e"/>
    </g>
    <g transform="translate(-1.8276,9.6993)">
     <g transform="translate(1.8973,-9.5921)">
      <path d="m95.832 116.53-3.3779-2.4969 3.8049-1.2273z" fill="#c8c6ba"/>
      <path d="m95.832 116.53 0.42705-3.7242 4.4593 1.2531z" fill="#b1b0ab"/>
      <path d="m103.3 116.37-7.4634 0.16763 4.8863-2.4711z" fill="#94928b"/>
      <path d="m92.454 114.04 3.3779 2.4969 0.16598 3.8854-4.4171-3.8311z" fill="#7f858b"/>
      <path d="m95.832 116.53 4.014-0.10779-1.052 3.2915-2.796 0.70173z" fill="#525e65"/>
      <path d="m99.846 116.42 3.4494-0.0598-0.65761 2.2383-3.8439 1.113z" fill="#434d50"/>
     </g>
     <path d="m116.33 99.275 1.7941-12.372 10.636 3.136z" fill="#b2b1ac"/>
     <path d="m110.84 106.76-4.8457-6.4299 1.9523-8.1437 5.2793 4.3039z" fill="#7f888f"/>
     <path d="m120.35 108.05-9.5125-1.295 2.3859-10.27 3.1007 2.7871 5.8429-0.5043z" fill="#6b767c"/>
     <path d="m127.3 98.543-5.1258 0.22771-5.8429 0.5043 12.43-9.2363 5.6927 5.5915-1.862 2.2616z" fill="#93928e"/>
     <path d="m113.23 96.488-5.2793-4.3039 10.174-5.2813-1.7941 12.372z" fill="#c7c4bb"/>
     <path d="m129.25 106.17-2.8963-0.10394 0.94015-7.52 5.2924-0.65121 0.14985 8.2192-2.1169 1.1028z" fill="#434e50"/>
     <path d="m122.62 108.06-0.25856 0.75747-2.0075-0.76388 1.8171-9.2819 5.1258-0.22771-0.94015 7.52-1.4078 0.085z" fill="#535e62"/>
    </g>
    <path d="m137.03 123.2-6.123-7.3899-0.14985-8.2192 1.862-2.2616 1.3674 8.8279 3.0924 4.0283z" fill="#6b747b"/>
    <path d="m150.35 116.84-4.7505-9.0472-5.6542-3.6261 8.7445 1.1592 0.86302 0.2566 3.9671 5.7187z" fill="#535e62"/>
    <path d="m152.45 122.22-1.739 1.8276-1.6475 0.57629-9.7994-4.0028-2.1778-2.4365 0.2881-4.3584 1.841 0.20084 0.82167-2.5351 9.5609 7.0968 0.75186-1.7526z" fill="#93928e"/>
    <path d="m156.08 117.98-3.6302 4.2393-2.1002-5.3838 3.1699-5.5387 2.3128 3.6262z" fill="#434e50"/>
    <path d="m149.06 124.62-2.951 1.2813-9.0751-2.7062 0.0488-5.0144 2.1778 2.4365z" fill="#515d61"/>
    <path d="m140.03 111.49-0.82167 2.5351-1.841-0.20084-0.2881 4.3584-3.0924-4.0283-1.3674-8.8279 1.5246-1.8802 5.794 0.71475 5.6542 3.6261 4.7505 9.0472-0.75186 1.7526z" fill="#b2b0ab"/>
    <g transform="translate(14.426,-4.0147)">
     <path d="m116.45 123.39-3.6261-1.9796-1.1832-0.21788 1.3604-1.3071 1.3692 1.0468 1.7617 1.4019z" fill="#92928e"/>
     <path d="m111.64 121.19-2.2463 0.0515-3.2848 1.291 0.25856-0.75747 2.3288-1.911 1.4078-0.085 2.8963 0.10394z" fill="#b3b1ab"/>
     <path d="m116.28 125.27-3.4768 1.0293-2.8168-0.0602 0.0835-2.9082 1.5646-2.1439 1.1832 0.21788 3.6261 1.9796z" fill="#6b767c"/>
     <path d="m115.9 127.32-1.7095 1.1455-3.9448-0.37066 2.5588-1.7916 3.4768-1.0293z" fill="#414f4f"/>
     <path d="m110.25 128.09-2.6392-0.7149-1.641-3.5009 4.0222 2.3641 2.8168 0.0602z" fill="#535e62"/>
     <path d="m110.07 123.33-0.0835 2.9082-4.0222-2.3641 0.13919-1.3455 3.2848-1.291 2.2463-0.0515z" fill="#7e878e"/>
    </g>
    <g transform="translate(-4.8544,7.6218)">
     <path d="m191.4 109.95-3.2947 1.6212 0.68449-2.2254 3.4963-1.9194z" fill="#404e4d"/>
     <path d="m188.1 111.57-4.6699 0.045-1.35-2.1878 4.5152 0.44376 2.1892-0.52638z" fill="#555f65"/>
     <path d="m186.6 109.87-4.5152-0.44376-0.0281-0.99944 2.2838-1.6122 1.7595 0.54824z" fill="#7e878e"/>
     <path d="m188.79 109.35-2.1892 0.52638-0.49997-2.5072 1.1782-1.8696 4.8556 0.50014 0.15168 1.4309z" fill="#6a757b"/>
     <path d="m187.28 105.49-0.1572-0.86274 1.2295-0.21742 3.7833 1.5803z" fill="#91918d"/>
     <path d="m182.06 108.43 1.1241-2.8051 3.9401-0.99119-2.7805 2.1841z" fill="#b2b0a7"/>
     <path d="m186.1 107.36-1.7595-0.54824 2.7805-2.1841 0.1572 0.86274z" fill="#889297"/>
    </g>
   </g>
  </g>
 </g>
</svg>
