<?xml version="1.0" encoding="UTF-8" standalone="no"?>
<svg
   xmlns:dc="http://purl.org/dc/elements/1.1/"
   xmlns:cc="http://creativecommons.org/ns#"
   xmlns:rdf="http://www.w3.org/1999/02/22-rdf-syntax-ns#"
   xmlns:svg="http://www.w3.org/2000/svg"
   xmlns="http://www.w3.org/2000/svg"
   xmlns:sodipodi="http://sodipodi.sourceforge.net/DTD/sodipodi-0.dtd"
   xmlns:inkscape="http://www.inkscape.org/namespaces/inkscape"
   sodipodi:docname="Cloud_Geocaching.svg"
   inkscape:version="1.0 (4035a4fb49, 2020-05-01)"
   id="svg2535"
   version="1.1"
   viewBox="0 0 96.932579 63.103703"
   height="63.103703mm"
   width="96.932579mm">
  <defs
     id="defs2529" />
  <sodipodi:namedview
     inkscape:window-maximized="1"
     inkscape:window-y="41"
     inkscape:window-x="-9"
     inkscape:window-height="1001"
     inkscape:window-width="1920"
     fit-margin-bottom="0"
     fit-margin-right="0"
     fit-margin-left="0"
     fit-margin-top="0"
     showgrid="false"
     inkscape:document-rotation="0"
     inkscape:current-layer="layer1"
     inkscape:document-units="mm"
     inkscape:cy="180.79547"
     inkscape:cx="219.02892"
     inkscape:zoom="2.7044706"
     inkscape:pageshadow="2"
     inkscape:pageopacity="0.0"
     borderopacity="1.0"
     bordercolor="#666666"
     pagecolor="#ffffff"
     id="base" />
  <metadata
     id="metadata2532">
    <rdf:RDF>
      <cc:Work
         rdf:about="">
        <dc:format>image/svg+xml</dc:format>
        <dc:type
           rdf:resource="http://purl.org/dc/dcmitype/StillImage" />
        <dc:title></dc:title>
      </cc:Work>
    </rdf:RDF>
  </metadata>
  <g
     transform="translate(-8.7215194,-1.8426998)"
     id="layer1"
     inkscape:groupmode="layer"
     inkscape:label="Ebene 1">
    <path
       id="path2226"
       style="fill:#dcdcdc;fill-opacity:1;fill-rule:evenodd;stroke:#691569;stroke-width:0;stroke-linecap:round;stroke-miterlimit:0;stroke-dashoffset:1.66299"
       d="M 53.077984,1.8427568 A 16.271875,16.271875 0 0 0 43.080661,5.3438348 16.271875,16.271875 0 0 0 39.270042,4.8906328 16.271875,16.271875 0 0 0 23.85393,15.95559 16.271875,16.271875 0 0 0 8.7215199,32.187158 16.271875,16.271875 0 0 0 24.993395,48.459033 16.271875,16.271875 0 0 0 26.869765,48.350511 16.271875,16.271875 0 0 0 41.032725,56.611507 16.271875,16.271875 0 0 0 56.650375,44.907311 16.271875,16.271875 0 0 0 72.478351,57.405257 16.271875,16.271875 0 0 0 87.516193,47.347989 16.271875,16.271875 0 0 0 89.382228,47.45496 16.271875,16.271875 0 0 0 105.6541,31.183085 16.271875,16.271875 0 0 0 90.441596,14.94635 16.271875,16.271875 0 0 0 74.595018,2.3719238 16.271875,16.271875 0 0 0 64.1817,6.1406858 16.271875,16.271875 0 0 0 53.163768,1.8427568 a 16.271875,16.271875 0 0 0 -0.08578,0 z M 58.034789,33.6403 a 16.271875,16.271875 0 0 0 -1.174088,2.925402 16.271875,16.271875 0 0 0 -0.789618,-2.441194 16.271875,16.271875 0 0 0 1.963706,-0.484208 z" />
    <path
       id="path2226-3-8-5"
       style="fill:#a8a4a5;fill-opacity:1;fill-rule:evenodd;stroke:#691569;stroke-width:0;stroke-linecap:round;stroke-miterlimit:0;stroke-dashoffset:1.66299"
       d="m 41.570163,13.330937 a 13.626042,13.890625 0 0 0 -13.513899,13.89063 13.626042,13.890625 0 0 0 0.57722,3.9982 13.626042,13.890625 0 0 0 -4.83743,10.614861 13.626042,13.890625 0 0 0 10.568871,13.536639 13.626042,13.890625 0 0 0 12.008569,7.326682 13.626042,13.890625 0 0 0 7.652239,-2.396751 13.626042,13.890625 0 0 0 9.42992,3.864371 13.626042,13.890625 0 0 0 13.626042,-13.890632 13.626042,13.890625 0 0 0 -0.10904,-1.75441 13.626042,13.890625 0 0 0 6.85591,1.886702 13.626042,13.890625 0 0 0 13.626049,-13.890623 13.626042,13.890625 0 0 0 -13.626049,-13.890629 13.626042,13.890625 0 0 0 -7.70237,2.43241 13.626042,13.890625 0 0 0 -12.52895,-8.42997 13.626042,13.890625 0 0 0 -9.798371,4.23798 13.626042,13.890625 0 0 0 -12.11657,-7.53546 13.626042,13.890625 0 0 0 -0.112141,0 z" />
    <path
       id="path2226-3-8-5-9-9-5-6-7-3"
       style="fill:#008000;fill-opacity:1;fill-rule:evenodd;stroke:#691569;stroke-width:0;stroke-linecap:round;stroke-miterlimit:0;stroke-dashoffset:1.66299"
       d="m 57.674606,22.348482 a 11.030606,11.244792 0 0 0 -9.637131,5.826521 11.030606,11.244792 0 0 0 -8.262551,-3.795641 11.030606,11.244792 0 0 0 -11.030329,11.2448 11.030606,11.244792 0 0 0 7.713219,10.723891 11.030606,11.244792 0 0 0 -0.628388,3.740337 11.030606,11.244792 0 0 0 11.03086,11.244803 11.030606,11.244792 0 0 0 6.873989,-2.451021 11.030606,11.244792 0 0 0 9.789591,6.064231 11.030606,11.244792 0 0 0 8.187611,-3.71037 11.030606,11.244792 0 0 0 7.687389,3.18121 11.030606,11.244792 0 0 0 11.03085,-11.2448 11.030606,11.244792 0 0 0 -5.657541,-9.820072 11.030606,11.244792 0 0 0 1.42421,-5.525759 11.030606,11.244792 0 0 0 -11.03086,-11.2448 11.030606,11.244792 0 0 0 -7.24762,2.768309 11.030606,11.244792 0 0 0 -10.21488,-7.001639 11.030606,11.244792 0 0 0 -0.0284,0 z m 7.276039,19.721279 a 11.030606,11.244792 0 0 0 0.220152,0.51367 11.030606,11.244792 0 0 0 -0.729671,-0.0873 11.030606,11.244792 0 0 0 0.509519,-0.426331 z m -8.366411,2.709921 a 11.030606,11.244792 0 0 0 0.201541,0.0191 11.030606,11.244792 0 0 0 -0.1354,0.108529 11.030606,11.244792 0 0 0 -0.0661,-0.12764 z" />
    <path
       style="stroke-width:0.0609558;fill:#ffffff"
       d="m 59.320633,28.320315 c -8.344855,0 -15.11705,6.772195 -15.11705,15.11705 0,8.344855 6.772195,15.11705 15.11705,15.11705 8.344854,0 15.117049,-6.772195 15.117049,-15.11705 0,-8.344855 -6.772195,-15.11705 -15.117049,-15.11705 z m 6.138254,22.242787 c -0.256014,0 -0.4145,-0.07924 -0.652227,-0.21944 -3.803645,-2.29194 -8.22904,-2.389469 -12.599575,-1.493418 -0.237728,0.06095 -0.548602,0.158485 -0.725374,0.158485 -0.591272,0 -0.963103,-0.46936 -0.963103,-0.963102 0,-0.627845 0.371831,-0.926529 0.829,-1.024058 4.992284,-1.103301 10.094289,-1.005772 14.446537,1.597042 0.371829,0.237728 0.59127,0.451074 0.59127,1.005772 0,0.554699 -0.432786,0.938719 -0.926528,0.938719 z M 67.098599,46.5644 c -0.316969,0 -0.530317,-0.140199 -0.749758,-0.256015 -3.809738,-2.255366 -9.490825,-3.163609 -14.544064,-1.792102 -0.292588,0.07924 -0.451074,0.158486 -0.725375,0.158486 -0.652227,0 -1.182543,-0.530317 -1.182543,-1.182544 0,-0.652228 0.31697,-1.085014 0.944815,-1.261786 1.694573,-0.475456 3.425719,-0.828999 5.961483,-0.828999 3.956033,0 7.777966,0.981388 10.789183,2.77349 0.493744,0.292589 0.688804,0.670515 0.688804,1.200831 -0.0061,0.658323 -0.518126,1.188639 -1.182545,1.188639 z m 1.889631,-4.644836 c -0.31697,0 -0.51203,-0.07924 -0.786329,-0.237727 -4.340058,-2.590624 -12.099737,-3.212374 -17.122499,-1.810389 -0.219441,0.06095 -0.493742,0.158485 -0.78633,0.158485 -0.804617,0 -1.420271,-0.627845 -1.420271,-1.438558 0,-0.829 0.512029,-1.29836 1.060631,-1.456845 2.145647,-0.627845 4.547306,-0.926529 7.162312,-0.926529 4.449778,0 9.112899,0.926529 12.520331,2.913689 0.475456,0.274302 0.786332,0.652229 0.786332,1.377603 0,0.829 -0.670515,1.420271 -1.414177,1.420271 z"
       id="path874" />
  </g>
</svg>
