<?xml version="1.0" encoding="UTF-8" standalone="no"?>
<svg
   xmlns:dc="http://purl.org/dc/elements/1.1/"
   xmlns:cc="http://creativecommons.org/ns#"
   xmlns:rdf="http://www.w3.org/1999/02/22-rdf-syntax-ns#"
   xmlns:svg="http://www.w3.org/2000/svg"
   xmlns="http://www.w3.org/2000/svg"
   xmlns:sodipodi="http://sodipodi.sourceforge.net/DTD/sodipodi-0.dtd"
   xmlns:inkscape="http://www.inkscape.org/namespaces/inkscape"
   sodipodi:docname="Cloud_Instagram.svg"
   inkscape:version="1.0 (4035a4fb49, 2020-05-01)"
   id="svg2535"
   version="1.1"
   viewBox="0 0 96.932579 63.103703"
   height="63.103703mm"
   width="96.932579mm">
  <defs
     id="defs2529" />
  <sodipodi:namedview
     inkscape:window-maximized="1"
     inkscape:window-y="41"
     inkscape:window-x="-9"
     inkscape:window-height="1001"
     inkscape:window-width="1920"
     fit-margin-bottom="0"
     fit-margin-right="0"
     fit-margin-left="0"
     fit-margin-top="0"
     showgrid="false"
     inkscape:document-rotation="0"
     inkscape:current-layer="layer1"
     inkscape:document-units="mm"
     inkscape:cy="101.21821"
     inkscape:cx="180.94303"
     inkscape:zoom="1.979899"
     inkscape:pageshadow="2"
     inkscape:pageopacity="0.0"
     borderopacity="1.0"
     bordercolor="#666666"
     pagecolor="#ffffff"
     id="base" />
  <metadata
     id="metadata2532">
    <rdf:RDF>
      <cc:Work
         rdf:about="">
        <dc:format>image/svg+xml</dc:format>
        <dc:type
           rdf:resource="http://purl.org/dc/dcmitype/StillImage" />
        <dc:title></dc:title>
      </cc:Work>
    </rdf:RDF>
  </metadata>
  <g
     transform="translate(-8.7215194,-1.8426998)"
     id="layer1"
     inkscape:groupmode="layer"
     inkscape:label="Ebene 1">
    <path
       id="path2226"
       style="fill:#dcdcdc;fill-opacity:1;fill-rule:evenodd;stroke:#691569;stroke-width:0;stroke-linecap:round;stroke-miterlimit:0;stroke-dashoffset:1.66299"
       d="M 53.077984,1.8427568 A 16.271875,16.271875 0 0 0 43.080661,5.3438348 16.271875,16.271875 0 0 0 39.270042,4.8906328 16.271875,16.271875 0 0 0 23.85393,15.95559 16.271875,16.271875 0 0 0 8.7215199,32.187158 16.271875,16.271875 0 0 0 24.993395,48.459033 16.271875,16.271875 0 0 0 26.869765,48.350511 16.271875,16.271875 0 0 0 41.032725,56.611507 16.271875,16.271875 0 0 0 56.650375,44.907311 16.271875,16.271875 0 0 0 72.478351,57.405257 16.271875,16.271875 0 0 0 87.516193,47.347989 16.271875,16.271875 0 0 0 89.382228,47.45496 16.271875,16.271875 0 0 0 105.6541,31.183085 16.271875,16.271875 0 0 0 90.441596,14.94635 16.271875,16.271875 0 0 0 74.595018,2.3719238 16.271875,16.271875 0 0 0 64.1817,6.1406858 16.271875,16.271875 0 0 0 53.163768,1.8427568 a 16.271875,16.271875 0 0 0 -0.08578,0 z M 58.034789,33.6403 a 16.271875,16.271875 0 0 0 -1.174088,2.925402 16.271875,16.271875 0 0 0 -0.789618,-2.441194 16.271875,16.271875 0 0 0 1.963706,-0.484208 z" />
    <path
       id="path2226-3-8-5"
       style="fill:#a8a4a5;fill-opacity:1;fill-rule:evenodd;stroke:#691569;stroke-width:0;stroke-linecap:round;stroke-miterlimit:0;stroke-dashoffset:1.66299"
       d="m 41.570163,13.330937 a 13.626042,13.890625 0 0 0 -13.513899,13.89063 13.626042,13.890625 0 0 0 0.57722,3.9982 13.626042,13.890625 0 0 0 -4.83743,10.614861 13.626042,13.890625 0 0 0 10.568871,13.536639 13.626042,13.890625 0 0 0 12.008569,7.326682 13.626042,13.890625 0 0 0 7.652239,-2.396751 13.626042,13.890625 0 0 0 9.42992,3.864371 13.626042,13.890625 0 0 0 13.626042,-13.890632 13.626042,13.890625 0 0 0 -0.10904,-1.75441 13.626042,13.890625 0 0 0 6.85591,1.886702 13.626042,13.890625 0 0 0 13.626049,-13.890623 13.626042,13.890625 0 0 0 -13.626049,-13.890629 13.626042,13.890625 0 0 0 -7.70237,2.43241 13.626042,13.890625 0 0 0 -12.52895,-8.42997 13.626042,13.890625 0 0 0 -9.798371,4.23798 13.626042,13.890625 0 0 0 -12.11657,-7.53546 13.626042,13.890625 0 0 0 -0.112141,0 z" />
    <path
       id="path2226-3-8-5-9-9-5-6-7-3"
       style="fill:#bc2a8d;fill-opacity:1;fill-rule:evenodd;stroke:#691569;stroke-width:0;stroke-linecap:round;stroke-miterlimit:0;stroke-dashoffset:1.66299"
       d="m 57.674606,22.348482 a 11.030606,11.244792 0 0 0 -9.637131,5.826521 11.030606,11.244792 0 0 0 -8.262551,-3.795641 11.030606,11.244792 0 0 0 -11.030329,11.2448 11.030606,11.244792 0 0 0 7.713219,10.723891 11.030606,11.244792 0 0 0 -0.628388,3.740337 11.030606,11.244792 0 0 0 11.03086,11.244803 11.030606,11.244792 0 0 0 6.873989,-2.451021 11.030606,11.244792 0 0 0 9.789591,6.064231 11.030606,11.244792 0 0 0 8.187611,-3.71037 11.030606,11.244792 0 0 0 7.687389,3.18121 11.030606,11.244792 0 0 0 11.03085,-11.2448 11.030606,11.244792 0 0 0 -5.657541,-9.820072 11.030606,11.244792 0 0 0 1.42421,-5.525759 11.030606,11.244792 0 0 0 -11.03086,-11.2448 11.030606,11.244792 0 0 0 -7.24762,2.768309 11.030606,11.244792 0 0 0 -10.21488,-7.001639 11.030606,11.244792 0 0 0 -0.0284,0 z m 7.276039,19.721279 a 11.030606,11.244792 0 0 0 0.220152,0.51367 11.030606,11.244792 0 0 0 -0.729671,-0.0873 11.030606,11.244792 0 0 0 0.509519,-0.426331 z m -8.366411,2.709921 a 11.030606,11.244792 0 0 0 0.201541,0.0191 11.030606,11.244792 0 0 0 -0.1354,0.108529 11.030606,11.244792 0 0 0 -0.0661,-0.12764 z" />
    <path
       style="fill:#ffffff;stroke-width:0.0612557"
       d="m 59.826279,36.760576 c -3.895866,0 -7.038285,3.14242 -7.038285,7.038285 0,3.895864 3.142419,7.038285 7.038285,7.038285 3.895866,0 7.038285,-3.142421 7.038285,-7.038285 0,-3.895865 -3.142419,-7.038285 -7.038285,-7.038285 z m 0,11.614089 c -2.517611,0 -4.575804,-2.052068 -4.575804,-4.575804 0,-2.523737 2.052067,-4.575804 4.575804,-4.575804 2.523737,0 4.575804,2.052067 4.575804,4.575804 0,2.523736 -2.058193,4.575804 -4.575804,4.575804 z m 8.967839,-11.901991 c 0,0.91271 -0.735068,1.641654 -1.641653,1.641654 -0.91271,0 -1.641653,-0.735069 -1.641653,-1.641654 0,-0.906585 0.735069,-1.641654 1.641653,-1.641654 0.906585,0 1.641653,0.735069 1.641653,1.641654 z m 4.661564,1.666156 c -0.104137,-2.199081 -0.606432,-4.147013 -2.217458,-5.751914 -1.6049,-1.604901 -3.552833,-2.107198 -5.751913,-2.217458 -2.266464,-0.128637 -9.059726,-0.128637 -11.326188,0 -2.192956,0.104135 -4.140888,0.606432 -5.751914,2.211332 -1.611027,1.604901 -2.107198,3.552834 -2.217458,5.751914 -0.128637,2.266463 -0.128637,9.059724 0,11.326187 0.104135,2.199082 0.606431,4.147015 2.217458,5.751915 1.611026,1.604899 3.552832,2.107198 5.751914,2.217458 2.266462,0.128636 9.059724,0.128636 11.326188,0 2.19908,-0.104137 4.147013,-0.606433 5.751913,-2.217458 1.604899,-1.6049 2.107198,-3.552833 2.217458,-5.751915 0.128636,-2.266463 0.128636,-9.053599 0,-11.320061 z m -2.928026,13.751914 c -0.477794,1.200613 -1.402757,2.125573 -2.609495,2.609494 -1.807042,0.716694 -6.094945,0.551302 -8.091882,0.551302 -1.996937,0 -6.290965,0.159266 -8.091884,-0.551302 -1.200612,-0.477795 -2.125574,-1.402757 -2.609494,-2.609494 -0.716692,-1.807045 -0.551302,-6.094947 -0.551302,-8.091883 0,-1.996938 -0.159265,-6.290965 0.551302,-8.091884 0.477795,-1.200612 1.402757,-2.125574 2.609494,-2.609495 1.807044,-0.716692 6.094947,-0.551301 8.091884,-0.551301 1.996937,0 6.290963,-0.159265 8.091882,0.551301 1.200615,0.477795 2.125575,1.402757 2.609495,2.609495 0.716693,1.807045 0.551302,6.094946 0.551302,8.091884 0,1.996936 0.165391,6.290964 -0.551302,8.091883 z"
       id="path11" />
  </g>
</svg>
