<?xml version="1.0" encoding="UTF-8" standalone="no"?>
<svg
   xmlns:dc="http://purl.org/dc/elements/1.1/"
   xmlns:cc="http://creativecommons.org/ns#"
   xmlns:rdf="http://www.w3.org/1999/02/22-rdf-syntax-ns#"
   xmlns:svg="http://www.w3.org/2000/svg"
   xmlns="http://www.w3.org/2000/svg"
   xmlns:sodipodi="http://sodipodi.sourceforge.net/DTD/sodipodi-0.dtd"
   xmlns:inkscape="http://www.inkscape.org/namespaces/inkscape"
   width="96.932579mm"
   height="63.103703mm"
   viewBox="0 0 96.932579 63.103703"
   version="1.1"
   id="svg2535"
   inkscape:version="1.0 (4035a4fb49, 2020-05-01)"
   sodipodi:docname="Cloud_Github.svg">
  <defs
     id="defs2529" />
  <sodipodi:namedview
     id="base"
     pagecolor="#ffffff"
     bordercolor="#666666"
     borderopacity="1.0"
     inkscape:pageopacity="0.0"
     inkscape:pageshadow="2"
     inkscape:zoom="1.979899"
     inkscape:cx="75.602507"
     inkscape:cy="67.178472"
     inkscape:document-units="mm"
     inkscape:current-layer="layer1"
     inkscape:document-rotation="0"
     showgrid="false"
     fit-margin-top="0"
     fit-margin-left="0"
     fit-margin-right="0"
     fit-margin-bottom="0"
     inkscape:window-width="1920"
     inkscape:window-height="1001"
     inkscape:window-x="-9"
     inkscape:window-y="41"
     inkscape:window-maximized="1" />
  <metadata
     id="metadata2532">
    <rdf:RDF>
      <cc:Work
         rdf:about="">
        <dc:format>image/svg+xml</dc:format>
        <dc:type
           rdf:resource="http://purl.org/dc/dcmitype/StillImage" />
        <dc:title></dc:title>
      </cc:Work>
    </rdf:RDF>
  </metadata>
  <g
     inkscape:label="Ebene 1"
     inkscape:groupmode="layer"
     id="layer1"
     transform="translate(-8.7215194,-1.8426998)">
    <path
       d="M 53.077984,1.8427568 A 16.271875,16.271875 0 0 0 43.080661,5.3438348 16.271875,16.271875 0 0 0 39.270042,4.8906328 16.271875,16.271875 0 0 0 23.85393,15.95559 16.271875,16.271875 0 0 0 8.7215199,32.187158 16.271875,16.271875 0 0 0 24.993395,48.459033 16.271875,16.271875 0 0 0 26.869765,48.350511 16.271875,16.271875 0 0 0 41.032725,56.611507 16.271875,16.271875 0 0 0 56.650375,44.907311 16.271875,16.271875 0 0 0 72.478351,57.405257 16.271875,16.271875 0 0 0 87.516193,47.347989 16.271875,16.271875 0 0 0 89.382228,47.45496 16.271875,16.271875 0 0 0 105.6541,31.183085 16.271875,16.271875 0 0 0 90.441596,14.94635 16.271875,16.271875 0 0 0 74.595018,2.3719238 16.271875,16.271875 0 0 0 64.1817,6.1406858 16.271875,16.271875 0 0 0 53.163768,1.8427568 a 16.271875,16.271875 0 0 0 -0.08578,0 z M 58.034789,33.6403 a 16.271875,16.271875 0 0 0 -1.174088,2.925402 16.271875,16.271875 0 0 0 -0.789618,-2.441194 16.271875,16.271875 0 0 0 1.963706,-0.484208 z"
       style="fill:#dcdcdc;fill-opacity:1;fill-rule:evenodd;stroke:#691569;stroke-width:0;stroke-linecap:round;stroke-miterlimit:0;stroke-dashoffset:1.66299"
       id="path2226" />
    <path
       d="m 41.570163,13.330937 a 13.626042,13.890625 0 0 0 -13.513899,13.89063 13.626042,13.890625 0 0 0 0.57722,3.9982 13.626042,13.890625 0 0 0 -4.83743,10.614861 13.626042,13.890625 0 0 0 10.568871,13.536639 13.626042,13.890625 0 0 0 12.008569,7.326682 13.626042,13.890625 0 0 0 7.652239,-2.396751 13.626042,13.890625 0 0 0 9.42992,3.864371 13.626042,13.890625 0 0 0 13.626042,-13.890632 13.626042,13.890625 0 0 0 -0.10904,-1.75441 13.626042,13.890625 0 0 0 6.85591,1.886702 13.626042,13.890625 0 0 0 13.626049,-13.890623 13.626042,13.890625 0 0 0 -13.626049,-13.890629 13.626042,13.890625 0 0 0 -7.70237,2.43241 13.626042,13.890625 0 0 0 -12.52895,-8.42997 13.626042,13.890625 0 0 0 -9.798371,4.23798 13.626042,13.890625 0 0 0 -12.11657,-7.53546 13.626042,13.890625 0 0 0 -0.112141,0 z"
       style="fill:#a8a4a5;fill-opacity:1;fill-rule:evenodd;stroke:#691569;stroke-width:0;stroke-linecap:round;stroke-miterlimit:0;stroke-dashoffset:1.66299"
       id="path2226-3-8-5" />
    <path
       d="m 57.674606,22.348482 a 11.030606,11.244792 0 0 0 -9.637131,5.826521 11.030606,11.244792 0 0 0 -8.262551,-3.795641 11.030606,11.244792 0 0 0 -11.030329,11.2448 11.030606,11.244792 0 0 0 7.713219,10.723891 11.030606,11.244792 0 0 0 -0.628388,3.740337 11.030606,11.244792 0 0 0 11.03086,11.244803 11.030606,11.244792 0 0 0 6.873989,-2.451021 11.030606,11.244792 0 0 0 9.789591,6.064231 11.030606,11.244792 0 0 0 8.187611,-3.71037 11.030606,11.244792 0 0 0 7.687389,3.18121 11.030606,11.244792 0 0 0 11.03085,-11.2448 11.030606,11.244792 0 0 0 -5.657541,-9.820072 11.030606,11.244792 0 0 0 1.42421,-5.525759 11.030606,11.244792 0 0 0 -11.03086,-11.2448 11.030606,11.244792 0 0 0 -7.24762,2.768309 11.030606,11.244792 0 0 0 -10.21488,-7.001639 11.030606,11.244792 0 0 0 -0.0284,0 z m 7.276039,19.721279 a 11.030606,11.244792 0 0 0 0.220152,0.51367 11.030606,11.244792 0 0 0 -0.729671,-0.0873 11.030606,11.244792 0 0 0 0.509519,-0.426331 z m -8.366411,2.709921 a 11.030606,11.244792 0 0 0 0.201541,0.0191 11.030606,11.244792 0 0 0 -0.1354,0.108529 11.030606,11.244792 0 0 0 -0.0661,-0.12764 z"
       style="fill:#800080;fill-opacity:1;fill-rule:evenodd;stroke:#691569;stroke-width:0;stroke-linecap:round;stroke-miterlimit:0;stroke-dashoffset:1.66299"
       id="path2226-3-8-5-9-9-5-6-7-3" />
    <path
       style="stroke-width:0.0578892;fill:#ffffff"
       d="m 55.697133,51.547434 c 0,0.115777 -0.133145,0.208401 -0.301024,0.208401 -0.191034,0.01737 -0.32418,-0.07526 -0.32418,-0.208401 0,-0.115779 0.133146,-0.208401 0.301025,-0.208401 0.173667,-0.01737 0.324179,0.07525 0.324179,0.208401 z m -1.800355,-0.260502 c -0.04052,0.115779 0.07526,0.248924 0.248924,0.283657 0.150512,0.05789 0.32418,0 0.358913,-0.115779 0.03473,-0.115777 -0.07526,-0.248924 -0.248924,-0.301023 -0.150512,-0.04052 -0.318391,0.01737 -0.358913,0.133145 z m 2.558704,-0.09841 c -0.167879,0.04052 -0.283657,0.150513 -0.26629,0.283658 0.01737,0.115777 0.167878,0.191033 0.341546,0.15051 0.167879,-0.04052 0.283658,-0.15051 0.26629,-0.266289 -0.01737,-0.10999 -0.173668,-0.185247 -0.341546,-0.167879 z m 3.809111,-22.183156 c -8.029236,0 -14.171284,6.095738 -14.171284,14.124975 0,6.419916 4.040669,11.913604 9.812225,13.847104 0.740984,0.133145 1.001484,-0.324178 1.001484,-0.70046 0,-0.358912 -0.01737,-2.338724 -0.01737,-3.554398 0,0 -4.052246,0.868339 -4.903218,-1.7251 0,0 -0.659937,-1.684576 -1.609321,-2.118746 0,0 -1.325663,-0.908861 0.09262,-0.891493 0,0 1.441442,0.115779 2.234525,1.493542 1.267774,2.234525 3.392309,1.591953 4.220125,1.209884 0.133145,-0.926227 0.509424,-1.568798 0.926227,-1.950867 -3.236007,-0.358912 -6.50096,-0.827816 -6.50096,-6.396761 0,-1.591954 0.439958,-2.390825 1.366186,-3.409674 -0.150512,-0.376282 -0.642571,-1.927713 0.150512,-3.93068 1.209885,-0.376279 3.994357,1.56301 3.994357,1.56301 1.157786,-0.324181 2.402404,-0.492059 3.635444,-0.492059 1.233042,0 2.47766,0.167878 3.635445,0.492059 0,0 2.78447,-1.945079 3.994354,-1.56301 0.793084,2.008756 0.301025,3.554398 0.150511,3.93068 0.92623,1.024638 1.493541,1.82351 1.493541,3.409674 0,5.586313 -3.409675,6.03206 -6.645679,6.396761 0.53258,0.457325 0.984115,1.325664 0.984115,2.686061 0,1.950867 -0.01737,4.364847 -0.01737,4.839541 0,0.376279 0.266292,0.833605 1.001483,0.70046 5.788922,-1.921924 9.713812,-7.415612 9.713812,-13.835528 0,-8.029237 -6.512537,-14.124975 -14.541773,-14.124975 z m -8.54445,19.965999 c -0.07526,0.05789 -0.05789,0.191034 0.04052,0.301024 0.09262,0.09262 0.225768,0.133144 0.301024,0.05789 0.07526,-0.05789 0.05789,-0.191033 -0.04052,-0.301023 -0.09262,-0.09262 -0.225768,-0.133145 -0.301025,-0.05789 z m -0.625204,-0.468906 c -0.04052,0.07526 0.01737,0.167879 0.133145,0.225769 0.09262,0.05789 0.208401,0.04052 0.248924,-0.04052 0.04052,-0.07526 -0.01737,-0.167879 -0.133145,-0.225769 -0.115779,-0.03473 -0.208401,-0.01737 -0.248924,0.04052 z m 1.875611,2.060857 c -0.09262,0.07526 -0.05789,0.248925 0.07526,0.358914 0.133145,0.133145 0.301024,0.150511 0.37628,0.05789 0.07526,-0.07526 0.04052,-0.248924 -0.07526,-0.358914 -0.127356,-0.133145 -0.301024,-0.150511 -0.37628,-0.05789 z m -0.659937,-0.850972 c -0.09262,0.05789 -0.09262,0.208401 0,0.341548 0.09262,0.133145 0.248924,0.191033 0.32418,0.133145 0.09262,-0.07526 0.09262,-0.225769 0,-0.358914 -0.08105,-0.133145 -0.231557,-0.191035 -0.32418,-0.115779 z"
       id="path10" />
  </g>
</svg>
