<?xml version="1.0" encoding="UTF-8"?>
<svg width="210.1mm" height="118.52mm" version="1.1" viewBox="0 0 210.1 118.52" xmlns="http://www.w3.org/2000/svg" xmlns:cc="http://creativecommons.org/ns#" xmlns:dc="http://purl.org/dc/elements/1.1/" xmlns:rdf="http://www.w3.org/1999/02/22-rdf-syntax-ns#">
 <metadata>
  <rdf:RDF>
   <cc:Work rdf:about="">
    <dc:format>image/svg+xml</dc:format>
    <dc:type rdf:resource="http://purl.org/dc/dcmitype/StillImage"/>
    <dc:title/>
   </cc:Work>
  </rdf:RDF>
 </metadata>
 <g transform="translate(2.9981 -1.7774)" fill="#0b1c2c">
  <path transform="matrix(.26458 0 0 .26458 -2.9981 1.7774)" d="m99.197 0c-21.665 75.191-52.105 117.57-82.916 158.55l48.268-21.102c-0.85583 43.029-46.405 104.39-64.549 146.47l73.592-59.303c-6.69 40.325-46.144 96.123-70.141 144.62l75.398-31.799-1.4414 110.51h23.875l5.875-108.24 72.494 6.9336c-20.503-40.108-58.748-54.155-61.51-120.32l63.564 15.701c-20.31-35.284-51.109-70.031-57.152-106.04l42.449 10.881c-27.339-42.351-55.189-83.992-67.807-146.87z" fill-opacity=".91063" stroke-width=".99133"/>
  <path transform="matrix(.26458 0 0 .26458 -2.9981 1.7774)" d="m377.5 37.553c-10.866 82.076-54.056 166.17-96.912 188.51l57.494-17.523c-9.5529 34.887-57.527 86.471-76.887 121.64l74.533-42.078c-7.9687 33.489-41.84 72.657-70.424 112.93l89.812-26.41-1.373 73.326h29.529l5.5606-71.439 86.352 5.7598c-24.422-33.309-59.312-28.227-62.602-83.18l65.049-3.709c-35.094-26.27-87.761-50.681-68.074-88.066l50.562 9.0352c-59.203-17.163-89.609-111.7-82.621-178.8z" fill-opacity=".9098" stroke-width=".98598"/>
  <path transform="matrix(.26458 0 0 .26458 -2.9981 1.7774)" d="m567.42 131.94c-25.66 58.466-61.712 91.415-98.203 123.29l57.168-16.408c-1.0136 33.458-54.962 81.172-76.451 113.89l87.16-46.111c-7.9234 31.355-54.653 74.743-83.074 112.45l89.303-24.727-1.0684 53.635h30.307l4.2871-51.869 85.859 5.3926c-24.283-31.187-69.577-42.109-72.848-93.561l75.281 12.209c-24.055-27.435-60.53-54.454-67.688-82.457l50.275 8.459c-32.38-32.931-65.364-65.309-80.309-114.2z" fill-opacity=".91063" stroke-width=".95133"/>
  <path transform="matrix(.26458 0 0 .26458 -2.9981 1.7774)" d="m205.22 154.84c-21.417 48.96-51.51 76.549-81.969 103.24l47.717-13.738c-0.84605 28.018-45.874 67.973-63.811 95.375l72.75-38.615c-6.6134 26.257-45.618 62.589-69.34 94.168l74.537-20.705-1.4551 73.393h23.514l5.9238-71.914 71.666 4.5156c-20.268-26.116-58.075-35.262-60.805-78.348l62.836 10.223c-20.078-22.974-50.524-45.599-56.498-69.049l41.963 7.084c-27.027-27.576-54.556-54.688-67.029-95.627z" fill-opacity=".91063" stroke-width=".79535"/>
  <path transform="matrix(.26458 0 0 .26458 -2.9981 1.7774)" d="m709.02 151.18c-9.2316 59.918-45.927 121.31-82.338 137.62l48.848-12.793c-8.1163 25.468-48.876 63.127-65.324 88.805l63.324-30.719c-6.7703 24.448-35.547 53.042-59.832 82.445l76.305-19.279-1.1035 50.701h25.283l4.4668-49.324 73.365 4.2051c-20.749-24.317-50.393-20.607-53.188-60.725l55.268-2.707c-29.816-19.178-74.564-37-57.838-64.293l42.959 6.5977c-50.3-12.529-76.133-81.55-70.195-130.54z" fill-opacity=".9098" stroke-width=".77651"/>
 </g>
</svg>
