<?xml version="1.0" encoding="UTF-8" standalone="no"?>
<svg
   xmlns:dc="http://purl.org/dc/elements/1.1/"
   xmlns:cc="http://creativecommons.org/ns#"
   xmlns:rdf="http://www.w3.org/1999/02/22-rdf-syntax-ns#"
   xmlns:svg="http://www.w3.org/2000/svg"
   xmlns="http://www.w3.org/2000/svg"
   xmlns:sodipodi="http://sodipodi.sourceforge.net/DTD/sodipodi-0.dtd"
   xmlns:inkscape="http://www.inkscape.org/namespaces/inkscape"
   sodipodi:docname="Landscape2_Inkscape.svg"
   inkscape:version="1.0 (4035a4fb49, 2020-05-01)"
   id="svg1528"
   version="1.1"
   viewBox="0 0 1199.9996 104.99981"
   height="104.9998mm"
   width="1199.9996mm">
  <defs
     id="defs1522" />
  <sodipodi:namedview
     fit-margin-bottom="0"
     fit-margin-right="0"
     fit-margin-left="0"
     fit-margin-top="0"
     inkscape:window-maximized="1"
     inkscape:window-y="41"
     inkscape:window-x="-9"
     inkscape:window-height="1001"
     inkscape:window-width="1920"
     showgrid="false"
     inkscape:document-rotation="0"
     inkscape:current-layer="layer1"
     inkscape:document-units="mm"
     inkscape:cy="294.65603"
     inkscape:cx="1349.3091"
     inkscape:zoom="0.25"
     inkscape:pageshadow="2"
     inkscape:pageopacity="0.0"
     borderopacity="1.0"
     bordercolor="#666666"
     pagecolor="#ffffff"
     id="base" />
  <metadata
     id="metadata1525">
    <rdf:RDF>
      <cc:Work
         rdf:about="">
        <dc:format>image/svg+xml</dc:format>
        <dc:type
           rdf:resource="http://purl.org/dc/dcmitype/StillImage" />
        <dc:title></dc:title>
      </cc:Work>
    </rdf:RDF>
  </metadata>
  <g
     transform="translate(297.82785,-211.3804)"
     id="layer1"
     inkscape:groupmode="layer"
     inkscape:label="Ebene 1">
    <path
       sodipodi:nodetypes="ccccccscccccccccccccccccccccccccccccccc"
       transform="matrix(0.26458333,0,0,0.26458333,21.638427,211.3804)"
       d="m 2236,0 c -42.8959,3.1608189 -84.0412,3.1683851 -128.6758,12.101562 -77.4166,16.66269 -98.3982,29.334209 -209.3047,37.851563 -65.8097,5.030362 -121.9562,-39.070955 -192.6757,-46.5371094 0,0 -31.0959,-2.1368255 -33.3653,-2.0351562 -48.6284,1.5705827 -84.95,75.9694346 -254.2832,95.2597656 -204.5806,29.023185 -218.538,103.698625 -306.2129,-51.246094 -4.2213,-7.460145 -6.9281,-8.333709 -9.3398,-7.677734 C 1059.2468,40.877616 1018.1014,3.1683851 973.4668,12.101562 896.0502,28.764252 875.06649,41.435771 764.16016,49.953125 698.35046,54.983487 642.20598,10.88217 571.48633,3.4160156 c 0,0 -31.09777,-2.1368255 -33.36719,-2.0351562 C 489.49076,2.9514421 453.16911,77.350294 283.83594,96.640625 74.75177,126.30274 155.65536,113.32419 -31.716797,37.716797 v 0.002 359.130863 H 1102.1406 2236 3328 V 96.775391 C 3265.4609,180.73403 3230.8955,121.69298 3054.3047,96.640625 2884.9715,77.350294 2848.6499,2.9514421 2800.0215,1.3808594 2797.7521,1.2791901 2766.6563,3.4160156 2766.6562,3.4160156 2695.9367,10.88217 2639.7902,54.983487 2573.9805,49.953125 2463.0741,41.435771 2442.0924,28.764252 2364.6758,12.101562 2320.0411,3.1683851 2278.8959,3.1608189 2236,0 Z M -31.716797,396.84961 V 37.71875 C -157.24409,27.2793 -138.18143,126.30465 -347.26562,96.642578 -516.59859,77.352247 -552.92033,2.9514421 -601.54883,1.3808594 c -2.26919,-0.1016693 -33.36719,2.0351562 -33.36719,2.0351562 -70.71949,7.4661924 -126.86619,51.5675094 -192.67578,46.5371094 -110.9063,-8.517279 -131.88982,-21.188873 -209.3066,-37.851563 -44.6343,-8.9332152 -85.7782,28.778007 -128.6739,25.617188 -2.4117,-0.656013 -5.1184,0.217741 -9.3398,7.677734 -11.9959,21.200013 -22.6066,38.074945 -32.5195,51.382813 V 396.84961 h 41.8593 z"
       inkscape:transform-center-y="-3.7367026e-05"
       inkscape:transform-center-x="1.5170838e-05"
       style="fill:#0a1d2e;fill-opacity:0.988235;fill-rule:evenodd;stroke:none;stroke-width:0;stroke-linecap:round;stroke-miterlimit:0;stroke-dashoffset:1.66299"
       id="path2093" />
  </g>
</svg>
