<?xml version="1.0" encoding="UTF-8"?>
<svg width="1200mm" height="105mm" version="1.1" viewBox="0 0 1200 105" xmlns="http://www.w3.org/2000/svg" xmlns:cc="http://creativecommons.org/ns#" xmlns:dc="http://purl.org/dc/elements/1.1/" xmlns:rdf="http://www.w3.org/1999/02/22-rdf-syntax-ns#">
 <metadata>
  <rdf:RDF>
   <cc:Work rdf:about="">
    <dc:format>image/svg+xml</dc:format>
    <dc:type rdf:resource="http://purl.org/dc/dcmitype/StillImage"/>
    <dc:title/>
   </cc:Work>
  </rdf:RDF>
 </metadata>
 <g transform="translate(297.83 -211.38)">
  <path transform="matrix(.26458 0 0 .26458 21.638 211.38)" d="m2236 0c-42.896 3.1608-84.041 3.1684-128.68 12.102-77.417 16.663-98.398 29.334-209.3 37.852-65.81 5.0304-121.96-39.071-192.68-46.537 0 0-31.096-2.1368-33.365-2.0352-48.628 1.5706-84.95 75.969-254.28 95.26-204.58 29.023-218.54 103.7-306.21-51.246-4.2213-7.4601-6.9281-8.3337-9.3398-7.6777-42.896 3.1608-84.041-34.548-128.68-25.615-77.417 16.663-98.4 29.334-209.31 37.852-65.81 5.0304-121.95-39.071-192.67-46.537 0 0-31.098-2.1368-33.367-2.0352-48.628 1.5706-84.95 75.969-254.28 95.26-209.08 29.662-128.18 16.684-315.55-58.924v359.13h3359.7v-300.07c-62.539 83.959-97.104 24.918-273.7-0.13477-169.33-19.29-205.65-93.689-254.28-95.26-2.2694-0.10167-33.365 2.0352-33.365 2.0352-70.72 7.4662-126.87 51.567-192.68 46.537-110.91-8.5174-131.89-21.189-209.3-37.852-44.635-8.9332-85.78-8.9407-128.68-12.102zm-2267.7 396.85v-359.13c-125.53-10.439-106.46 88.586-315.55 58.924-169.33-19.29-205.65-93.691-254.28-95.262-2.2692-0.10167-33.367 2.0352-33.367 2.0352-70.719 7.4662-126.87 51.568-192.68 46.537-110.91-8.5173-131.89-21.189-209.31-37.852-44.634-8.9332-85.778 28.778-128.67 25.617-2.4117-0.65601-5.1184 0.21774-9.3398 7.6777-11.996 21.2-22.607 38.075-32.52 51.383v300.07h41.859z" fill="#0a1d2e" fill-opacity=".98824" fill-rule="evenodd"/>
 </g>
</svg>
