<?xml version="1.0" encoding="UTF-8"?>
<svg width="32px" height="32px" version="1.1" viewBox="0 0 34.925 34.925" xmlns="http://www.w3.org/2000/svg" xmlns:cc="http://creativecommons.org/ns#" xmlns:dc="http://purl.org/dc/elements/1.1/" xmlns:rdf="http://www.w3.org/1999/02/22-rdf-syntax-ns#">
 <metadata>
  <rdf:RDF>
   <cc:Work rdf:about="">
    <dc:format>image/svg+xml</dc:format>
    <dc:type rdf:resource="http://purl.org/dc/dcmitype/StillImage"/>
    <dc:title/>
   </cc:Work>
  </rdf:RDF>
 </metadata>
 <path d="m22.733 27.513 5.1999 5.1999c0.59805 0.59806 1.3849 1.7581 2.2285 1.9781 0.64303 0.16768 1.128-0.27512 1.5532-0.69524 0.88156-0.87102 1.7754-1.737 2.6311-2.6335 0.36676-0.38425 0.71637-0.85772 0.55707-1.4182-0.2494-0.87764-1.4133-1.6692-2.0401-2.2961l-5.1324-5.1324c1.4625-0.68281 2.8623-1.6141 4.2545-2.4319 0.59697-0.35062 1.2649-0.68646 1.209-1.4849-0.0444-0.63257-0.54248-0.91998-1.074-1.1345-0.9892-0.39931-1.981-0.79241-2.9714-1.1886-4.3431-1.7372-8.6905-3.4626-13.034-5.1999l-4.7272-1.8909c-0.65391-0.26155-1.4287-0.63452-2.017-0.03323-0.59813 0.61136-0.22177 1.3516 0.045 2.0186 0.63865 1.5965 1.2658 3.198 1.9044 4.7947 1.737 4.3432 3.4629 8.6904 5.1999 13.034 0.38716 0.96793 0.77141 1.9371 1.1616 2.9038 0.21448 0.53147 0.50189 1.0296 1.1345 1.074 0.79673 0.05585 1.1409-0.60907 1.4857-1.209 0.80666-1.4034 1.7464-2.788 2.4311-4.2545" fill="#FFFFFF"/>
</svg>
