<?xml version="1.0" encoding="UTF-8"?>
<svg width="32px" height="32px" version="1.1" viewBox="0 0 34.925 34.925" xmlns="http://www.w3.org/2000/svg" xmlns:cc="http://creativecommons.org/ns#" xmlns:dc="http://purl.org/dc/elements/1.1/" xmlns:rdf="http://www.w3.org/1999/02/22-rdf-syntax-ns#">
 <metadata>
  <rdf:RDF>
   <cc:Work rdf:about="">
    <dc:format>image/svg+xml</dc:format>
    <dc:type rdf:resource="http://purl.org/dc/dcmitype/StillImage"/>
    <dc:title/>
   </cc:Work>
  </rdf:RDF>
 </metadata>
 <g transform="translate(148.6 -32.198)">
  <path d="m-137.01 32.396c-0.41214 0.09325-0.7319 0.3721-0.86271 0.77458-0.28329 0.8714-0.0827 2.0606-0.0827 2.9714 0 0.46202-0.0629 0.97787 0.10556 1.4182 0.19996 0.52251 0.76391 0.83124 1.3126 0.70705 0.40587-0.09187 0.7184-0.37186 0.83482-0.77458 0.25656-0.88738 0.0431-2.1159 0.0431-3.0389 0-0.42392 0.081-0.94664-0.0655-1.3506-0.18618-0.51317-0.74993-0.8282-1.2851-0.7071m6.9557 2.5662c-0.45584 0.10315-0.76364 0.45788-1.0805 0.77458-0.69963 0.69933-1.8903 1.522-2.2981 2.4311-0.38743 0.86376 0.36048 1.7749 1.2851 1.5978 0.42349-0.08117 0.72211-0.4295 1.013-0.71988 0.69328-0.69216 1.9934-1.5786 2.3536-2.4987 0.32213-0.82271-0.36744-1.7899-1.2731-1.585m-14.182 0.54046c-0.71821 0.17341-1.0779 1.0073-0.73946 1.6523 0.19251 0.3669 0.51799 0.65632 0.80699 0.94544 0.72456 0.72484 1.9106 2.5205 3.1064 2.1753 0.69713-0.20131 0.99379-0.99805 0.67532-1.635-0.18599-0.37195-0.52087-0.65592-0.81038-0.94544-0.70615-0.7062-1.879-2.4726-3.0389-2.1925m18.369 24.208 5.1999 5.1999c0.59805 0.59806 1.3849 1.7581 2.2285 1.9781 0.64303 0.16768 1.128-0.27512 1.5532-0.69524 0.88156-0.87102 1.7754-1.737 2.6311-2.6335 0.36676-0.38425 0.71637-0.85772 0.55707-1.4182-0.2494-0.87764-1.4133-1.6692-2.0401-2.2961l-5.1324-5.1324c1.4625-0.68281 2.8623-1.6141 4.2545-2.4319 0.59697-0.35062 1.2649-0.68646 1.209-1.4849-0.0444-0.63257-0.54248-0.91998-1.074-1.1345-0.9892-0.39931-1.981-0.79241-2.9714-1.1886-4.3431-1.7372-8.6905-3.4626-13.034-5.1999l-4.7272-1.8909c-0.65391-0.26155-1.4287-0.63452-2.017-0.03323-0.59813 0.61136-0.22177 1.3516 0.045 2.0186 0.63865 1.5965 1.2658 3.198 1.9044 4.7947 1.737 4.3432 3.4629 8.6904 5.1999 13.034 0.38716 0.96793 0.77141 1.9371 1.1616 2.9038 0.21448 0.53147 0.50189 1.0296 1.1345 1.074 0.79673 0.05585 1.1409-0.60907 1.4857-1.209 0.80666-1.4034 1.7464-2.788 2.4311-4.2545m-21.34-17.054c-1.0222 0.19321-1.4183 1.6195-0.4042 2.1402 0.38143 0.19584 0.86684 0.12426 1.2821 0.12426 0.9825 0 2.2973 0.22988 3.2415-0.04308 0.9891-0.286 1.0636-1.7013 0.13501-2.1199-0.43462-0.19598-0.95445-0.13304-1.4181-0.13304-0.90846 0-1.943-0.13729-2.8363 0.0316m5.1324 4.3905c-0.49372 0.08104-0.81083 0.44078-1.148 0.77783-0.70989 0.70962-1.8692 1.5178-2.3015 2.4311-0.40485 0.85535 0.31807 1.721 1.221 1.6083 0.46752-0.05841 0.76537-0.41532 1.0805-0.73035 0.708-0.70773 1.9581-1.5658 2.3482-2.4987 0.33023-0.78964-0.33165-1.7308-1.2002-1.5882z" fill="#FFAB21"/>
 </g>
</svg>
