<?xml version="1.0" encoding="UTF-8" standalone="no"?>
<svg
   xmlns:dc="http://purl.org/dc/elements/1.1/"
   xmlns:cc="http://creativecommons.org/ns#"
   xmlns:rdf="http://www.w3.org/1999/02/22-rdf-syntax-ns#"
   xmlns:svg="http://www.w3.org/2000/svg"
   xmlns="http://www.w3.org/2000/svg"
   xmlns:sodipodi="http://sodipodi.sourceforge.net/DTD/sodipodi-0.dtd"
   xmlns:inkscape="http://www.inkscape.org/namespaces/inkscape"
   sodipodi:docname="Planet.svg"
   inkscape:version="1.0 (4035a4fb49, 2020-05-01)"
   id="svg8"
   version="1.1"
   viewBox="0 0 210 297"
   height="297mm"
   width="210mm">
  <defs
     id="defs2">
    <inkscape:path-effect
       only_selected="false"
       apply_with_weight="true"
       apply_no_weight="true"
       helper_size="0"
       steps="2"
       weight="33.333333"
       lpeversion="1"
       is_visible="true"
       id="path-effect930"
       effect="bspline" />
    <inkscape:path-effect
       effect="bspline"
       id="path-effect911"
       is_visible="true"
       lpeversion="1"
       weight="33.333333"
       steps="2"
       helper_size="0"
       apply_no_weight="true"
       apply_with_weight="true"
       only_selected="false" />
    <inkscape:path-effect
       only_selected="false"
       apply_with_weight="true"
       apply_no_weight="true"
       helper_size="0"
       steps="2"
       weight="33.333333"
       lpeversion="1"
       is_visible="true"
       id="path-effect883"
       effect="bspline" />
    <inkscape:path-effect
       effect="bspline"
       id="path-effect862"
       is_visible="true"
       lpeversion="1"
       weight="33.333333"
       steps="2"
       helper_size="0"
       apply_no_weight="true"
       apply_with_weight="true"
       only_selected="false" />
    <inkscape:path-effect
       only_selected="false"
       apply_with_weight="true"
       apply_no_weight="true"
       helper_size="0"
       steps="2"
       weight="33.333333"
       lpeversion="1"
       is_visible="true"
       id="path-effect843"
       effect="bspline" />
  </defs>
  <sodipodi:namedview
     inkscape:window-maximized="1"
     inkscape:window-y="41"
     inkscape:window-x="-9"
     inkscape:window-height="1001"
     inkscape:window-width="1920"
     showgrid="false"
     inkscape:document-rotation="0"
     inkscape:current-layer="layer1"
     inkscape:document-units="mm"
     inkscape:cy="340.15565"
     inkscape:cx="299.02836"
     inkscape:zoom="1.4142136"
     inkscape:pageshadow="2"
     inkscape:pageopacity="0.0"
     borderopacity="1.0"
     bordercolor="#666666"
     pagecolor="#ffffff"
     id="base" />
  <metadata
     id="metadata5">
    <rdf:RDF>
      <cc:Work
         rdf:about="">
        <dc:format>image/svg+xml</dc:format>
        <dc:type
           rdf:resource="http://purl.org/dc/dcmitype/StillImage" />
        <dc:title></dc:title>
      </cc:Work>
    </rdf:RDF>
  </metadata>
  <g
     id="layer1"
     inkscape:groupmode="layer"
     inkscape:label="Ebene 1">
    <g
       transform="rotate(-37.9996,-158.33596,287.62667)"
       id="g1179">
      <circle
         r="47.5"
         cy="240.49394"
         cx="153.22563"
         id="path833-5"
         style="fill:#ff9955;fill-rule:evenodd;stroke:#bfbf2d;stroke-width:0;stroke-linecap:round;stroke-miterlimit:4;stroke-dasharray:none;stroke-dashoffset:1.66299;paint-order:fill markers stroke" />
      <path
         id="path833"
         style="fill:#ff6600;fill-rule:evenodd;stroke:#bfbf2d;stroke-width:0;stroke-linecap:round;stroke-miterlimit:4;stroke-dasharray:none;stroke-dashoffset:1.66299;paint-order:fill markers stroke"
         d="m 132.0236,197.99582 a 47.5,47.5 0 0 0 -10e-4,5.3e-4 h 18.82883 a 2.9999995,2.9999995 0 0 0 -2.99982,2.99982 2.9999995,2.9999995 0 0 0 2.99982,3.00033 h 17.57722 a 2.9999995,2.9999995 0 0 1 2.99981,2.99982 2.9999995,2.9999995 0 0 1 -2.99981,3.00033 v -5.3e-4 H 116.8183 a 47.5,47.5 0 0 0 0,5.3e-4 h 4.4411 2.836 35.79627 a 2.9999995,2.9999995 0 0 0 -2.99982,2.99982 2.9999995,2.9999995 0 0 0 2.99982,3.00033 h 20.35948 a 2.9999995,2.9999995 0 0 1 2.99982,2.99982 2.9999995,2.9999995 0 0 1 -2.99982,3.00033 v -5.2e-4 h -70.76829 a 47.5,47.5 0 0 0 -5.3e-4,5.2e-4 h 2.73678 2.836 35.79627 a 2.9999995,2.9999995 0 0 0 -2.99982,2.99982 2.9999995,2.9999995 0 0 0 2.99982,3.00033 h 17.57722 a 2.9999995,2.9999995 0 0 1 2.99982,2.99982 2.9999995,2.9999995 0 0 1 -2.99982,3.00034 v -5.3e-4 h -62.25044 a 47.5,47.5 0 0 0 -5.3e-4,5.3e-4 h 15.08177 2.836 35.79627 a 2.9999995,2.9999995 0 0 0 -2.99982,2.99981 2.9999995,2.9999995 0 0 0 2.99982,3.00034 h 20.35948 a 2.9999995,2.9999995 0 0 1 2.99982,2.99981 2.9999995,2.9999995 0 0 1 -2.99982,3.00034 v -5.3e-4 H 106.05 a 47.5,47.5 0 0 0 0,5.3e-4 h 6.16913 2.836 35.79626 a 2.9999995,2.9999995 0 0 0 -2.99981,2.99981 2.9999995,2.9999995 0 0 0 2.99981,3.00034 h 17.57722 a 2.9999995,2.9999995 0 0 1 2.99982,2.99981 2.9999995,2.9999995 0 0 1 -2.99982,3.00034 v -5.3e-4 h -59.35709 a 47.5,47.5 0 0 0 5.2e-4,5.3e-4 h 12.18736 2.836 35.79627 a 2.9999995,2.9999995 0 0 0 -2.99982,2.9998 2.9999995,2.9999995 0 0 0 2.99982,3.00034 h 20.35948 a 2.9999995,2.9999995 0 0 1 2.99982,2.99981 2.9999995,2.9999995 0 0 1 -2.99982,3.00033 v -5.2e-4 h -64.24983 a 47.5,47.5 0 0 0 5.3e-4,5.2e-4 h 34.84955 a 2.9999995,2.9999995 0 0 0 -2.99981,2.99982 2.9999995,2.9999995 0 0 0 2.99981,3.00034 h 17.57722 a 2.9999995,2.9999995 0 0 1 2.99982,2.99981 2.9999995,2.9999995 0 0 1 -2.99982,3.00034 v -5.3e-4 H 130.1214 a 47.5,47.5 0 0 0 0.001,5.3e-4 h 29.7693 a 2.9999995,2.9999995 0 0 0 -2.99981,2.99981 2.9999995,2.9999995 0 0 0 1.68775,2.69803 47.5,47.5 0 0 0 42.15143,-47.19764 47.5,47.5 0 0 0 -26.29349,-42.50283 z" />
    </g>
  </g>
</svg>
