<?xml version="1.0" encoding="UTF-8" standalone="no"?>
<svg
   xmlns:dc="http://purl.org/dc/elements/1.1/"
   xmlns:cc="http://creativecommons.org/ns#"
   xmlns:rdf="http://www.w3.org/1999/02/22-rdf-syntax-ns#"
   xmlns:svg="http://www.w3.org/2000/svg"
   xmlns="http://www.w3.org/2000/svg"
   id="svg8"
   version="1.1"
   viewBox="0 0 210 297"
   height="297mm"
   width="210mm">

  <g
     id="layer1">
    <g
       transform="translate(-91.40157,-44.48848)"
       id="g1315">
      <g
         id="g1300">
        <path
           d="m 111.33886,95.945709 c -3.59413,6.6e-5 -6.50769,4.008212 -6.50761,8.952421 5e-5,4.7285 6.30187,13.00051 6.50761,13.00179 0.20574,-10e-4 6.50756,-8.27329 6.50761,-13.00179 8e-5,-4.944206 -2.91348,-8.952355 -6.50761,-8.952421 z"
           style="fill:#de9a0c;fill-opacity:1;fill-rule:evenodd;stroke:#691569;stroke-width:0;stroke-linecap:round;stroke-miterlimit:0;stroke-dashoffset:1.66299"
           id="path1191" />
        <path
           id="path1191-4"
           style="fill:#ffb401;fill-opacity:1;fill-rule:evenodd;stroke:#691569;stroke-width:0;stroke-linecap:round;stroke-miterlimit:0;stroke-dashoffset:1.66299"
           d="m 111.33887,95.945709 c -2.68776,5.7e-5 -4.86658,3.487506 -4.86652,7.789421 4e-5,4.11421 4.71266,11.31161 4.86652,11.31273 0.15385,-8.7e-4 4.86647,-7.19852 4.86651,-11.31273 6e-5,-4.301913 -2.17876,-7.789364 -4.86651,-7.789421 z" />
      </g>
      <g
         id="g1079"
         transform="translate(-130.21871,34.373343)">
        <path
           id="path870-8"
           style="fill:#e95354;fill-opacity:1;fill-rule:evenodd;stroke:#691569;stroke-width:0;stroke-linecap:round;stroke-miterlimit:0;stroke-dashoffset:1.66299"
           d="m 254.46015,52.83885 6.24923,4.109309 0.78548,11.84164 -8.62997,-3.54397 z" />
        <path
           id="path870"
           style="fill:#ea5455;fill-opacity:1;fill-rule:evenodd;stroke:#691569;stroke-width:0;stroke-linecap:round;stroke-miterlimit:0;stroke-dashoffset:1.66299"
           d="m 228.61762,52.661147 -6.21185,4.287 -0.78549,11.841652 8.62997,-3.54397 z" />
        <path
           id="path929"
           style="fill:#f5f5f5;fill-opacity:1;fill-rule:evenodd;stroke:#691569;stroke-width:0;stroke-linecap:round;stroke-miterlimit:0;stroke-dashoffset:1.66299"
           d="m 241.55757,11.986024 a 13.229167,35.06089 0 0 0 -13.22916,35.060908 13.229167,35.06089 0 0 0 1.92184,18.198897 h 22.61464 a 13.229167,35.06089 0 0 0 1.92184,-18.198897 13.229167,35.06089 0 0 0 -13.22916,-35.060908 z" />
        <path
           id="path929-0"
           style="fill:#e95354;fill-opacity:1;fill-rule:evenodd;stroke:#691569;stroke-width:0;stroke-linecap:round;stroke-miterlimit:0;stroke-dashoffset:1.66299"
           d="m 241.60434,10.115137 c -3.98431,2.268503 -7.28451,5.985702 -9.78985,13.214898 h 19.48615 c -2.50534,-7.22919 -5.92247,-10.899615 -9.6963,-13.214898 z" />
        <g
           transform="translate(131.55519,-39.376585)"
           id="g949">
          <g
             id="g866"
             transform="translate(8.4457165,-10.372246)">
            <circle
               style="fill:#384e66;fill-opacity:1;fill-rule:evenodd;stroke:#691569;stroke-width:0;stroke-linecap:round;stroke-miterlimit:0;stroke-dashoffset:1.66299"
               id="path847-6"
               cx="101.55666"
               cy="87.429314"
               r="8.8533039" />
            <circle
               r="6.6149211"
               cy="87.429314"
               cx="101.55666"
               id="path847"
               style="fill:#b4cde3;fill-opacity:1;fill-rule:evenodd;stroke:#691569;stroke-width:0;stroke-linecap:round;stroke-miterlimit:0;stroke-dashoffset:1.66299" />
          </g>
        </g>
        <rect
           y="65.245827"
           x="231.85152"
           height="2.3248012"
           width="19.412107"
           id="rect1060"
           style="fill:#e2e2e2;fill-opacity:1;fill-rule:evenodd;stroke:#691569;stroke-width:0;stroke-linecap:round;stroke-miterlimit:0;stroke-dashoffset:1.66299" />
      </g>
    </g>
  </g>
</svg>
